<svg width="25" height="24" viewBox="0 0 25 24" fill="none" xmlns="http://www.w3.org/2000/svg">
<path d="M12.5 12V18" stroke="black" stroke-width="1.5" stroke-linecap="round"/>
<path d="M12.5 18C10.8264 18 9.36971 19.012 8.61766 20.505C8.25846 21.218 8.77389 22 9.45877 22H15.5412C16.2261 22 16.7415 21.218 16.3823 20.505C15.6303 19.012 14.1736 18 12.5 18Z" stroke="black" stroke-width="1.5" stroke-linecap="round"/>
<path d="M5.5 5H4.48471C3.49819 5 3.00493 5 2.70017 5.37053C2.39541 5.74106 2.48478 6.15597 2.66352 6.9858C3.00494 8.57086 3.74548 9.9634 4.7489 11" stroke="black" stroke-width="1.5" stroke-linecap="round"/>
<path d="M19.5 5H20.5153C21.5018 5 21.9951 5 22.2998 5.37053C22.6046 5.74106 22.5152 6.15597 22.3365 6.9858C21.9951 8.57086 21.2545 9.9634 20.2511 11" stroke="black" stroke-width="1.5" stroke-linecap="round"/>
<path d="M12.5 12C16.366 12 19.5 8.8831 19.5 5.03821C19.5 4.93739 19.4978 4.83707 19.4936 4.73729C19.4508 3.73806 19.4295 3.23845 18.7523 2.61922C18.0751 2 17.3247 2 15.824 2H9.17596C7.67526 2 6.92492 2 6.24772 2.61922C5.57051 3.23844 5.54915 3.73806 5.50642 4.73729C5.50215 4.83707 5.5 4.93739 5.5 5.03821C5.5 8.8831 8.63401 12 12.5 12Z" stroke="black" stroke-width="1.5" stroke-linecap="round"/>
</svg>
