<svg width="30" height="30" viewBox="0 0 30 30" fill="none" xmlns="http://www.w3.org/2000/svg">
<path d="M12.0442 5.11754L11.5698 4.95943L11.5698 4.95943L12.0442 5.11754ZM11.4108 7.01766L11.6161 7.47356L11.8158 7.3836L11.8851 7.17577L11.4108 7.01766ZM9.88371 7.90089L9.78347 8.39074L9.99847 8.43473L10.1764 8.30628L9.88371 7.90089ZM7.91947 7.49893L7.81923 7.98878L7.91947 7.49893ZM5.78646 8.45833L5.35344 8.20833L5.35344 8.20833L5.78646 8.45833ZM4.72797 10.2917L5.16099 10.5417L5.16099 10.5417L4.72797 10.2917ZM4.96362 12.6186L5.33772 12.2869L5.33772 12.2869L4.96362 12.6186ZM6.29383 14.1187L6.79135 14.1685L6.81313 13.9507L6.66793 13.787L6.29383 14.1187ZM6.29383 15.8813L6.66793 16.213L6.81313 16.0493L6.79135 15.8315L6.29383 15.8813ZM4.96362 17.3814L4.58952 17.0497L4.58952 17.0497L4.96362 17.3814ZM4.72797 19.7083L5.16099 19.4583L5.16099 19.4583L4.72797 19.7083ZM5.78645 21.5417L5.35344 21.7917L5.35344 21.7917L5.78645 21.5417ZM7.91946 22.5011L7.81922 22.0112L7.81922 22.0112L7.91946 22.5011ZM9.88371 22.0991L10.1764 21.6937L9.99846 21.5653L9.78347 21.6093L9.88371 22.0991ZM11.4108 22.9823L11.8851 22.8242L11.8158 22.6164L11.6161 22.5264L11.4108 22.9823ZM12.0442 24.8825L12.5185 24.7243L12.5185 24.7243L12.0442 24.8825ZM17.9558 24.8825L17.4815 24.7243L17.4815 24.7243L17.9558 24.8825ZM18.5892 22.9823L18.3839 22.5264L18.1842 22.6164L18.1149 22.8242L18.5892 22.9823ZM20.1163 22.0991L20.2165 21.6093L20.0015 21.5653L19.8236 21.6937L20.1163 22.0991ZM22.0805 22.5011L22.1808 22.0112L22.1808 22.0112L22.0805 22.5011ZM24.2135 21.5417L24.6466 21.7917L24.6466 21.7917L24.2135 21.5417ZM25.272 19.7083L25.705 19.9583L25.705 19.9583L25.272 19.7083ZM25.0364 17.3814L24.6623 17.7131L24.6623 17.7131L25.0364 17.3814ZM23.7062 15.8813L23.2087 15.8315L23.1869 16.0493L23.3321 16.213L23.7062 15.8813ZM23.7062 14.1187L23.3321 13.787L23.1869 13.9507L23.2087 14.1685L23.7062 14.1187ZM25.0364 12.6186L25.4105 12.9503L25.4105 12.9503L25.0364 12.6186ZM25.272 10.2917L24.839 10.5417L24.839 10.5417L25.272 10.2917ZM24.2135 8.45833L23.7805 8.70833L23.7805 8.70833L24.2135 8.45833ZM22.0805 7.49893L22.1808 7.98878L22.1808 7.98878L22.0805 7.49893ZM20.1163 7.90089L19.8236 8.30628L20.0015 8.43473L20.2165 8.39073L20.1163 7.90089ZM18.5892 7.01765L18.1149 7.17577L18.1842 7.3836L18.3839 7.47356L18.5892 7.01765ZM17.9558 5.11754L17.4815 5.27566L17.4815 5.27566L17.9558 5.11754ZM12.5185 5.27566C12.7227 4.66314 13.2959 4.25 13.9415 4.25V3.25C12.8654 3.25 11.9101 3.93857 11.5698 4.95943L12.5185 5.27566ZM11.8851 7.17577L12.5185 5.27566L11.5698 4.95943L10.9364 6.85954L11.8851 7.17577ZM10.1764 8.30628C10.6247 7.9826 11.1067 7.70295 11.6161 7.47356L11.2055 6.56175C10.634 6.81911 10.0935 7.13273 9.59104 7.4955L10.1764 8.30628ZM7.81923 7.98878L9.78347 8.39074L9.98395 7.41104L8.01971 7.00908L7.81923 7.98878ZM6.21947 8.70833C6.54229 8.14918 7.18669 7.85934 7.81923 7.98878L8.01971 7.00908C6.96548 6.79335 5.89148 7.27642 5.35344 8.20833L6.21947 8.70833ZM5.16099 10.5417L6.21947 8.70833L5.35344 8.20833L4.29496 10.0417L5.16099 10.5417ZM5.33772 12.2869C4.90935 11.8038 4.83816 11.1008 5.16099 10.5417L4.29496 10.0417C3.75692 10.9736 3.87557 12.1452 4.58952 12.9503L5.33772 12.2869ZM6.66793 13.787L5.33772 12.2869L4.58952 12.9503L5.91973 14.4504L6.66793 13.787ZM6.75 15C6.75 14.7192 6.76401 14.4418 6.79135 14.1685L5.79631 14.0689C5.76567 14.3753 5.75 14.6859 5.75 15H6.75ZM6.79135 15.8315C6.76401 15.5582 6.75 15.2808 6.75 15H5.75C5.75 15.3141 5.76567 15.6247 5.79631 15.9311L6.79135 15.8315ZM5.33772 17.7131L6.66793 16.213L5.91973 15.5496L4.58952 17.0497L5.33772 17.7131ZM5.16099 19.4583C4.83816 18.8992 4.90935 18.1962 5.33772 17.7131L4.58952 17.0497C3.87557 17.8548 3.75692 19.0264 4.29496 19.9583L5.16099 19.4583ZM6.21947 21.2917L5.16099 19.4583L4.29496 19.9583L5.35344 21.7917L6.21947 21.2917ZM7.81922 22.0112C7.18669 22.1407 6.54229 21.8508 6.21947 21.2917L5.35344 21.7917C5.89148 22.7236 6.96547 23.2066 8.0197 22.9909L7.81922 22.0112ZM9.78347 21.6093L7.81922 22.0112L8.0197 22.9909L9.98395 22.589L9.78347 21.6093ZM11.6161 22.5264C11.1067 22.2971 10.6247 22.0174 10.1764 21.6937L9.59104 22.5045C10.0935 22.8673 10.634 23.1809 11.2055 23.4382L11.6161 22.5264ZM12.5185 24.7243L11.8851 22.8242L10.9364 23.1405L11.5698 25.0406L12.5185 24.7243ZM13.9415 25.75C13.2959 25.75 12.7227 25.3369 12.5185 24.7243L11.5698 25.0406C11.9101 26.0614 12.8654 26.75 13.9415 26.75V25.75ZM16.0585 25.75H13.9415V26.75H16.0585V25.75ZM17.4815 24.7243C17.2773 25.3369 16.7041 25.75 16.0585 25.75V26.75C17.1346 26.75 18.0899 26.0614 18.4302 25.0406L17.4815 24.7243ZM18.1149 22.8242L17.4815 24.7243L18.4302 25.0406L19.0636 23.1405L18.1149 22.8242ZM19.8236 21.6937C19.3753 22.0174 18.8933 22.2971 18.3839 22.5264L18.7945 23.4382C19.366 23.1809 19.9065 22.8673 20.409 22.5045L19.8236 21.6937ZM22.1808 22.0112L20.2165 21.6093L20.016 22.589L21.9803 22.9909L22.1808 22.0112ZM23.7805 21.2917C23.4577 21.8508 22.8133 22.1407 22.1808 22.0112L21.9803 22.9909C23.0345 23.2066 24.1085 22.7236 24.6466 21.7917L23.7805 21.2917ZM24.839 19.4583L23.7805 21.2917L24.6466 21.7917L25.705 19.9583L24.839 19.4583ZM24.6623 17.7131C25.0906 18.1962 25.1618 18.8992 24.839 19.4583L25.705 19.9583C26.2431 19.0264 26.1244 17.8548 25.4105 17.0497L24.6623 17.7131ZM23.3321 16.213L24.6623 17.7131L25.4105 17.0497L24.0803 15.5496L23.3321 16.213ZM23.25 15C23.25 15.2808 23.236 15.5582 23.2087 15.8315L24.2037 15.931C24.2343 15.6247 24.25 15.3141 24.25 15H23.25ZM23.2087 14.1685C23.236 14.4418 23.25 14.7192 23.25 15H24.25C24.25 14.6859 24.2343 14.3753 24.2037 14.0689L23.2087 14.1685ZM24.6623 12.2869L23.3321 13.787L24.0803 14.4504L25.4105 12.9503L24.6623 12.2869ZM24.839 10.5417C25.1618 11.1008 25.0906 11.8038 24.6623 12.2869L25.4105 12.9503C26.1244 12.1452 26.2431 10.9736 25.705 10.0417L24.839 10.5417ZM23.7805 8.70833L24.839 10.5417L25.705 10.0417L24.6466 8.20833L23.7805 8.70833ZM22.1808 7.98878C22.8133 7.85934 23.4577 8.14918 23.7805 8.70833L24.6466 8.20833C24.1085 7.27642 23.0345 6.79335 21.9803 7.00908L22.1808 7.98878ZM20.2165 8.39073L22.1808 7.98878L21.9803 7.00908L20.016 7.41104L20.2165 8.39073ZM18.3839 7.47356C18.8933 7.70295 19.3753 7.9826 19.8236 8.30628L20.409 7.4955C19.9065 7.13273 19.366 6.81911 18.7945 6.56175L18.3839 7.47356ZM17.4815 5.27566L18.1149 7.17577L19.0636 6.85954L18.4302 4.95943L17.4815 5.27566ZM16.0585 4.25C16.7041 4.25 17.2773 4.66315 17.4815 5.27566L18.4302 4.95943C18.0899 3.93858 17.1346 3.25 16.0585 3.25V4.25ZM13.9415 4.25H16.0585V3.25H13.9415V4.25Z" fill="black"/>
<path fill-rule="evenodd" clip-rule="evenodd" d="M15 16.25C15.6904 16.25 16.25 15.6904 16.25 15C16.25 14.3096 15.6904 13.75 15 13.75C14.3096 13.75 13.75 14.3096 13.75 15C13.75 15.6904 14.3096 16.25 15 16.25Z" stroke="black"/>
</svg>
