<svg width="20" height="20" viewBox="0 0 20 20" fill="none" xmlns="http://www.w3.org/2000/svg">
<path d="M16.9939 6.69315L15.5381 5.42892C14.4892 4.51803 14.0781 4.02801 13.5101 4.20124C12.8018 4.41724 13.035 5.78016 13.035 6.24028C11.9338 6.24028 10.789 6.15559 9.70359 6.33205C6.12044 6.91459 5 9.46394 5 12.2105C6.01415 11.5889 7.02728 10.8956 8.24617 10.6075C9.76768 10.2478 11.467 10.4195 13.035 10.4195C13.035 10.8795 12.8018 12.2425 13.5101 12.4585C14.1537 12.6547 14.4892 12.1417 15.5381 11.2308L16.9939 9.96659C17.8869 9.19113 18.3333 8.8034 18.3333 8.32987C18.3333 7.85633 17.8869 7.4686 16.9939 6.69315Z" stroke="black" stroke-width="1.5" stroke-linecap="round" stroke-linejoin="round"/>
<path d="M8.80634 2.5C5.58948 2.50578 3.90497 2.5846 2.82844 3.65894C1.66669 4.81835 1.66669 6.68438 1.66669 10.4164C1.66669 14.1485 1.66669 16.0145 2.82844 17.1739C3.99019 18.3333 5.86001 18.3333 9.59963 18.3333C13.3393 18.3333 15.2091 18.3333 16.3708 17.1739C17.1797 16.3667 17.4254 15.2169 17.5 13.3333" stroke="black" stroke-width="1.5" stroke-linecap="round" stroke-linejoin="round"/>
</svg>
